<svg width="409" height="320" viewBox="0 0 409 320" fill="none" xmlns="http://www.w3.org/2000/svg">
<g clip-path="url(#clip0_35_153)">
<path d="M217.9 300.4C286.5 300.4 342.1 244.8 342.1 176.2C342.1 107.6 286.5 52 217.9 52C149.3 52 93.7 107.6 93.7 176.2C93.7 244.8 149.3 300.4 217.9 300.4Z" fill="#FEFCE8"/>
<path d="M226.8 295.1C291.5 295.1 343.9 242.7 343.9 178C343.9 113.3 291.5 60.9 226.8 60.9C162.1 60.9 109.8 113.3 109.8 178C109.8 242.7 162.2 295.1 226.8 295.1Z" fill="#217FC1"/>
<path d="M41.7001 214.6C34.0001 214.5 27.5001 214 21.5001 210.9C13.4001 206.8 7.90012 200.6 6.50012 191.4C5.50012 184.6 7.40012 178.4 11.5001 173.1C19.8001 162.5 30.5001 157.5 44.1001 159.6C47.5001 160.1 50.2001 162 51.6001 165.2C52.6001 167.4 52.0001 168.3 49.7001 168.7C42.1001 170.2 35.8001 173.6 31.9001 180.7C27.4001 189.2 32.0001 197.3 41.6001 197.8C54.0001 198.4 69.3001 188.7 71.2001 174.1C71.9001 168.6 70.8001 163.6 67.2001 159.5C62.1001 153.7 56.6001 148.2 51.3001 142.6C45.8001 136.9 42.5001 130.4 43.1001 122.2C43.5001 117.4 45.2001 113.1 47.8001 109.2C54.7001 99 64.7001 93 76.3001 89.7C83.2001 87.7 90.3001 86.9 97.3001 88.3C100.9 89 104.7 90.1 107.9 91.8C115.9 96.1 118 105.2 113.1 112.8C109.6 118.2 104.6 121.3 98.2001 122.1C95.4001 122.5 95.0001 121.8 96.0001 119.2C97.6001 115.5 98.4001 111.7 96.2001 107.9C93.9001 103.9 90.1001 102.9 85.9001 103.2C81.1001 103.6 77.4001 105.8 75.6001 110.6C73.5001 116.4 74.9001 121.8 77.8001 126.8C80.6001 131.6 83.9001 136 87.2001 140.5C99.7001 157.6 98.6001 178.8 84.5001 194.6C72.8001 207.8 58.0001 214 41.7001 214.6Z" fill="#FACC15"/>
<path d="M75.7001 87.7C82.8001 85.6 90.2001 84.8 97.7001 86.3C101.4 87 105.4 88.1 108.8 90C117.8 94.9 120.2 105.3 114.7 113.8C110.9 119.7 105.3 123.1 98.4001 124C97.7001 124.1 96.9001 124.1 96.2001 124.1C95.5001 124 94.6001 123.8 94.0001 122.9C93.4001 122.1 93.4001 121.1 93.5001 120.5C93.6001 119.8 93.8001 119.1 94.1001 118.5C95.6001 114.9 96.2001 111.9 94.5001 109C92.7001 105.9 89.8001 105 86.1001 105.3C84.0001 105.5 82.2001 106 80.8001 107C79.4001 108 78.3001 109.4 77.5001 111.4C75.7001 116.2 76.8001 120.9 79.3001 125.4L79.6001 125.8C82.3001 130.5 85.6001 134.8 88.8001 139.3L89.4001 140.1C101.6 157.5 100.5 178.9 86.7001 195.1L86.0001 195.9C73.9001 209.6 58.5001 216 41.6001 216.6H41.5001H41.4001C33.9001 216.5 27.2001 216 21.0001 213L20.4001 212.7C11.8001 208.4 5.90011 201.7 4.40011 191.7V191C3.50011 183.8 5.60011 177.4 9.90011 171.8C18.6001 160.7 30.0001 155.4 44.4001 157.6C48.4001 158.2 51.7001 160.4 53.5001 164.3C54.0001 165.4 54.6001 167 53.7001 168.5C52.9001 169.9 51.3001 170.4 50.1001 170.6C42.9001 172 37.2001 175.1 33.7001 181.6C31.7001 185.4 31.8001 188.8 33.2001 191.2C34.6001 193.6 37.5001 195.5 41.7001 195.7C47.4001 196 53.9001 193.9 59.2001 189.9C64.5001 186 68.4001 180.4 69.3001 173.7C70.0001 168.6 69.0001 164.2 65.8001 160.7C60.7001 155 55.3001 149.5 49.9001 143.9C44.2001 137.9 40.5001 130.8 41.2001 121.9C41.6001 116.7 43.5001 112.1 46.2001 108C53.4001 97.4 63.8001 91.2 75.7001 87.7ZM97.3001 88.3C90.2001 86.9 83.1001 87.7 76.3001 89.7L75.2001 90C64.1001 93.4 54.6001 99.3 47.9001 109.3C45.3001 113.2 43.5001 117.5 43.2001 122.3C42.6001 130.5 45.9001 137 51.4001 142.7C56.8001 148.3 62.2001 153.8 67.3001 159.6C70.9001 163.7 72.0001 168.7 71.3001 174.2C69.4001 188.6 54.6001 198.2 42.3001 197.9H41.7001C32.1001 197.5 27.5001 189.4 32.0001 180.8C35.7001 173.8 41.8001 170.5 49.0001 168.9L49.7001 168.8C51.9001 168.4 52.5001 167.6 51.8001 165.7L51.6001 165.3C50.1001 162.1 47.4001 160.2 44.1001 159.7C30.6001 157.6 19.8001 162.5 11.5001 173.2C7.30011 178.5 5.40011 184.7 6.50011 191.5C7.90011 200.7 13.3001 206.9 21.5001 211C27.1001 213.8 33.2001 214.5 40.3001 214.6H41.7001C57.8001 214 72.4001 208 84.1001 195.2L84.7001 194.6C98.6001 179 99.8001 158.2 87.9001 141.3L87.3001 140.5C84.0001 136 80.7001 131.6 77.9001 126.8C75.0001 121.8 73.5001 116.4 75.7001 110.6C77.5001 105.8 81.2001 103.6 86.0001 103.2C90.2001 102.9 94.0001 103.9 96.3001 107.9C98.5001 111.7 97.6001 115.5 96.1001 119.2L95.9001 119.7C95.1001 121.9 95.6001 122.4 98.3001 122.1C104.7 121.3 109.7 118.2 113.2 112.8C118 105.3 116 96.4 108.4 92L108 91.8C104.7 90 100.9 89 97.3001 88.3Z" fill="white"/>
<path d="M215.5 103.8C219.7 93.7 231.9 90.8 240.6 97.5C242 98.5 243.3 99.7 243.6 101.4C243.9 103.1 243.2 104.7 242.5 106.1C237.4 116.3 232 126 227.8 136.3C224.4 144.5 222.2 153.4 220.2 162.2C218.7 168.9 218.9 175.3 223.8 180.8L225.3 182.5L223.5 183.8C218.5 187.4 213.3 186.4 209.2 185.7C204.9 185 201.9 183 199.9 180C198.6 178.1 197.9 175.8 197.5 173.2C196.9 173.8 196.3 174.3 195.7 174.8C186.6 183.7 175.5 186.4 163.4 184.5C159.9 184 157.1 182.5 154.9 180.3C152.8 178.1 151.4 175.3 150.6 172.1C150.2 170.6 150.1 169.2 150 167.8C149.9 166.4 149.8 165.1 149.7 163.9C149.7 163.8 149.7 163.6 149.6 163.5C149.5 163.6 149.3 163.6 149.2 163.7C149.2 163.7 149.2 163.7 149 163.9C148.9 164 148.9 164.1 148.8 164.2L148.6 164.6C144.7 171.9 139.2 178 132 182.3C124.6 186.7 116.4 188 108 185.3C100.3 182.8 97.1 176.5 96.3 169.5L96.2 168.6C94.4 149 103.8 133.3 120 123.9L120.6 123.5C127.2 119.9 134.6 119.1 142 120.7C146.1 121.6 149.4 123.7 151.8 126.9C154.1 130.1 155.3 134.1 155.4 138.8V139.6C155.4 140.7 155.3 141.8 155.2 142.9C158.2 136.5 162.5 130.9 167.7 125.9L168.4 125.3C173.8 120.3 180.1 117.4 187.8 117.4C194.1 117.4 198.6 120.3 200.9 124.6C203 128.7 203 133.9 200.8 138.5L200.6 138.9C198.6 143 195.3 146 190.6 147C188.6 147.4 186.3 147.3 184.3 146.6C182.5 145.9 180.9 144.8 180.4 143C179.9 141.2 180.4 139.4 181.3 137.8C181.5 137.4 181.8 137 182 136.6C181.2 137.3 180.5 138 180 138.8C176.5 144.1 173.7 149.5 173 155.6C173 155.9 172.9 156.1 172.9 156.2C172.9 156.4 172.9 156.5 172.8 156.5C172.3 160.5 173.2 162.9 174.5 164.2C175.8 165.4 178 166 181.5 165.5L182.2 165.4C189.3 164 194.8 159.8 199.7 154.2C199.8 154.1 200 153.8 200.1 153.2C200.3 152.6 200.4 152 200.5 151.2C204.1 134.9 209.2 119.1 215.5 103.8ZM239.4 99.1C231.8 93.2 221.1 95.7 217.4 104.6C211.1 119.8 206 135.5 202.4 151.6L202.2 152.6C202 153.7 201.7 154.7 201.1 155.4L200.6 155.9C195.7 161.4 189.9 165.7 182.4 167.2L181.6 167.3C173.9 168.5 169.8 164.8 170.5 156.9L170.6 156.1C170.6 155.8 170.7 155.5 170.7 155.1C171.4 148.9 174 143.5 177.3 138.4L178 137.4C179.3 135.4 181.4 133.9 183.2 132.3C183.6 132 184.6 131.9 185 132.2C185.3 132.5 185.4 133.4 185.2 133.9C184.5 135.5 183.6 136.9 182.8 138.4C181.2 141.2 181.8 143.3 184.8 144.4C186.4 145 188.4 145.1 190 144.8C194 144 196.8 141.4 198.6 137.8C202.8 129.4 199 119.4 188.1 119.1H187.6C180.4 119.1 174.6 121.7 169.5 126.5L168.8 127.1C162 133.6 156.8 141.3 154.1 150.5C153.8 151.4 153.2 152.1 152.7 152.9L151.8 152.5C151.9 151.7 151.9 150.9 152 150.2C152.4 146.3 153.3 142.4 153.3 138.6C153.2 129.8 148.8 124 141.5 122.4C134.3 120.8 127.2 121.6 120.9 125.3L120.2 125.7C104.7 135 96.1 150 98.2 169C98.9 175.6 101.9 181 108.6 183.2C116.4 185.7 124 184.5 130.9 180.4C137.5 176.4 142.7 170.9 146.4 164.1L146.8 163.4C147.1 162.8 147.6 162.1 148.2 161.8C149 161.4 150.1 161 150.9 161.2C151.3 161.3 151.5 162.7 151.6 163.5C151.9 166.2 151.9 168.9 152.5 171.5C153.9 177.3 157.4 181.4 163.7 182.4C175.3 184.2 185.7 181.6 194.3 173.2C195.6 171.9 197.1 170.7 199.1 168.9C199.3 176.7 202 182.1 209.6 183.5C213.8 184.2 218.2 185 222.4 182C217.1 176 216.8 169.1 218.3 162.3L218.4 161.6C220.4 152.7 222.6 143.8 226.1 135.4C230.3 125 235.9 115.2 240.9 105.1C242.4 102.2 242.4 101.2 240.1 99.3L239.4 99.1ZM116.6 156.3C120.4 161.9 126 163.5 131.7 164.2C130.6 169 124.9 173.7 120.7 173.7C117.2 173.7 115 172 114.6 168.7C114 164.7 114.6 160.7 116.6 156.3ZM117.2 160.3C116.3 163.2 116.1 165.8 116.5 168.5V168.7C116.7 169.9 117.1 170.5 117.7 171C118.3 171.5 119.2 171.8 120.6 171.8C122.1 171.8 124.1 170.9 126 169.3C127.2 168.3 128.2 167.1 128.9 165.8C124.8 165.1 120.6 163.6 117.2 160.3ZM129.2 134.6C131 132.2 133.5 131 135.6 131.6C136.1 131.8 136.6 132 136.9 132.2L137.1 132.3C137.9 132.8 140.4 134.8 139.3 139.3L137.9 146.5C137.4 148.9 137 151.3 136.5 153.7C136.1 155.9 134.7 156.3 132.7 155.8C127.8 154.5 125.4 151.7 125.4 146.5C125.5 142.2 126.6 138.2 129.2 134.6ZM135.1 133.6C134.1 133.3 132.3 133.8 130.8 135.8C128.6 138.8 127.6 142.1 127.5 145.8V146.5C127.5 148.8 128 150.3 128.9 151.3C129.8 152.4 131.1 153.2 133.3 153.8C134.1 154 134.3 153.9 134.4 153.9C134.4 153.8 134.5 153.6 134.6 153.3C135.5 148.5 136.5 143.8 137.4 139C137.9 137 137.4 135.8 137 135.1C136.8 134.7 136.5 134.5 136.3 134.3L135.9 134L135.8 133.9L135.7 133.8C135.6 133.8 135.4 133.7 135.1 133.6Z" fill="white"/>
<path d="M324.9 184.9C321 184.9 315.9 184.3 312 179.3C311 178 310.3 176.4 309.6 175C309.4 174.5 309.1 174 308.9 173.5C308.8 173.4 308.8 173.2 308.7 173.1C308.4 173.4 308.1 173.8 307.7 174.1C306.9 174.9 306.1 175.7 305.3 176.5C303.3 178.6 301.2 180.7 298.7 182.2C296 183.9 292.9 184.8 289.5 184.8C286.8 184.8 283.9 184.2 280.9 183.1C277.1 181.7 274.8 178.2 274.3 173C274.2 172.1 274.2 171.3 274.1 170.3C273.8 170.6 273.5 170.8 273.2 171.1C268.5 175.4 262.9 180.2 255.7 182.7C252.4 183.9 248.9 184.5 245.2 184.5C242.3 184.5 239.3 184.1 236.3 183.4C228 181.4 222.7 173.2 223.5 163.2C224.5 150.7 231.5 141.6 237.5 135.1C243.7 128.3 249.9 124.3 256.8 122.6C259 122 261.2 121.8 263.4 121.8C265.3 121.8 267.3 122 269.2 122.5C276.8 124.3 280.3 129.8 279 137.5C277.7 144.8 273.6 150.7 266.1 156C261.3 159.4 255.5 161.7 248.3 162.9C247.7 163 246.9 163.3 246.5 163.6C246.6 164.5 247 165.5 247.6 166.2C248.4 167.2 249.5 167.6 251.2 167.6C251.8 167.6 252.4 167.5 253.3 167.4C259.7 166.5 265 163.3 270.9 159.5C274.5 157.2 277 154.1 278.9 149.4C283.2 139.2 290 130.7 299.1 124.3C302.8 121.7 307.1 120.3 311.8 120.3C313.2 120.3 314.6 120.4 316.1 120.6C321.5 121.5 325.1 125.5 325.3 130.9C325.4 132.8 325.6 133.1 327.8 133.5C330.4 134 332.8 135.7 334.8 137.2C336.6 138.5 336.9 140.7 335.7 143.1C332 150.2 329.8 157 328.7 163.9C327.9 168.9 327.8 174.6 332.2 179.1C333.3 180.3 333.8 181.6 333.4 182.7C333.1 183.4 332.5 184.3 330.7 184.4C328.6 184.7 326.7 184.9 324.9 184.9ZM309.8 135.3C309.2 135.3 308.3 136 307.5 136.7L307.2 136.9C302.4 140.8 299.6 146.3 297.1 151.5C295.9 154 295.1 157.3 294.9 160.8C294.8 162 295 162.9 295.5 163.5C295.8 163.9 296.3 164.1 296.9 164.1C297.7 164.1 298.5 163.8 299.4 163.3C306 159.3 309.6 152.9 313.3 146.1C313.1 146.1 312.8 146.1 312.6 146.1C310.4 146.1 309.3 145 308.8 144.1C308.8 144 308.7 144 308.7 143.9C308 142.6 308.7 141.3 309.3 140C309.5 139.6 309.7 139.2 309.8 138.9C309.9 138.5 310.1 138 310.3 137.6C310.6 137 310.9 136.2 310.8 135.9C310.8 135.8 310.6 135.7 310.4 135.5C310.1 135.4 309.9 135.3 309.8 135.3ZM255.6 137.5C253.1 139.6 251.1 142.3 249.5 145.7C249.4 145.9 249.3 146 249.3 146.2C248.7 147.6 248.1 149.1 247.6 150.7C252.7 149.3 258.8 142.6 259.4 137.5C259.5 136.9 259.4 136.2 259.3 135.8C259.2 135.8 259.1 135.8 259 135.8C258.4 135.8 257.7 136 257.4 136.2C256.8 136.6 256.3 137 255.8 137.4V137.5H255.6Z" fill="#FACC15"/>
<path d="M311.5 121.8C312.8 121.8 314.2 121.9 315.6 122.1C320.2 122.8 323.4 126.2 323.5 131C323.6 133.8 324.6 134.5 327.2 135.1C329.5 135.6 331.7 137.2 333.7 138.6C335 139.5 334.9 141 334.1 142.6C330.7 149.3 328.1 156.4 327 163.8C326.1 169.7 326.3 175.6 330.9 180.3C331.9 181.4 332.5 182.8 330.3 183.1C328.5 183.3 326.7 183.4 324.9 183.4C320.5 183.4 316.4 182.4 313.2 178.4C311.9 176.8 311.2 174.7 310.3 172.8C310 172.1 309.8 171.3 309.3 170.1C308.2 171.3 307.5 172.1 306.7 172.9C303.8 175.6 301.2 178.8 297.9 180.9C295.3 182.6 292.4 183.3 289.5 183.3C286.8 183.3 284 182.7 281.4 181.7C277.7 180.4 276.1 176.8 275.8 172.9C275.6 171.3 275.6 169.7 275.4 167.4C274.1 168.5 273.1 169.2 272.2 170C267.1 174.6 261.8 179 255.2 181.3C251.9 182.5 248.6 183 245.2 183C242.3 183 239.5 182.6 236.6 182C228.7 180.2 224.2 172.3 224.9 163.4C225.7 152.4 231.3 143.9 238.5 136.2C243.6 130.6 249.5 126 257.1 124.1C259.2 123.6 261.2 123.3 263.3 123.3C265.1 123.3 266.9 123.5 268.7 123.9C275.5 125.5 278.6 130.3 277.3 137.2C275.9 144.9 271.2 150.4 265 154.7C259.8 158.3 254 160.3 247.8 161.4C246.6 161.6 244.7 162.4 244.7 163C244.7 164.4 245.3 166 246.2 167.1C247.5 168.6 249.2 169.1 250.9 169.1C251.6 169.1 252.4 169 253.2 168.9C260 167.9 265.7 164.5 271.4 160.8C275.5 158.2 278.1 154.6 280 150C284.2 140.1 290.8 131.8 299.7 125.5C303.3 123 307.3 121.8 311.5 121.8ZM296.9 165.6C297 165.6 297 165.6 296.9 165.6C298 165.6 299.1 165.3 300.2 164.6C307.9 159.9 311.7 152.1 316 144.4C316 144.4 316 144.4 315.9 144.4C315.5 144.4 315.3 144.3 315.1 144.3H315C314.2 144.5 313.4 144.7 312.6 144.7C311.6 144.7 310.6 144.4 310 143.4L309.9 143.3C309.5 142.5 310.6 140.8 311 139.5C311.4 138.2 312.5 136.8 312 135.5C311.9 135.1 311.6 134.8 311.1 134.4C310.6 134 310.1 133.9 309.6 133.9C308.3 133.9 307.1 135 306.1 135.8C301.2 139.8 298.2 145.4 295.6 150.9C294.2 153.9 293.5 157.4 293.2 160.8C293.2 163.8 294.7 165.5 296.9 165.6ZM245.5 152.3C246.6 152.2 247.2 152.2 247.7 152.1C253.4 150.7 260.1 143.4 260.8 137.5C260.9 136.4 260.7 134.5 260 134.3C259.7 134.2 259.3 134.1 258.9 134.1C258 134.1 257.1 134.4 256.5 134.8C255.8 135.3 255.2 135.7 254.6 136.2C251.8 138.6 249.7 141.5 248.1 144.9C248 145.1 247.9 145.2 247.9 145.4C247 147.6 246.2 149.9 245.5 152.3ZM311.5 118.8C306.5 118.8 301.9 120.2 298 123C288.7 129.6 281.7 138.3 277.3 148.8C275.5 153.2 273.2 156.1 269.8 158.2C264.1 161.9 258.9 165 252.8 165.8C252.1 165.9 251.5 166 251 166C249.5 166 248.9 165.6 248.6 165.1C248.4 164.9 248.3 164.6 248.1 164.3C248.2 164.3 248.3 164.2 248.4 164.2C255.8 162.9 261.8 160.5 266.8 157C274.5 151.5 278.9 145.2 280.3 137.6C281.8 129.1 277.8 122.9 269.4 120.8C267.4 120.3 265.3 120.1 263.3 120.1C261 120.1 258.7 120.4 256.4 121C249.2 122.8 242.8 126.9 236.3 134C230.1 140.7 222.9 150 222 163C221.2 173.7 226.9 182.6 236 184.8C239.2 185.5 242.3 185.9 245.3 185.9C249.1 185.9 252.8 185.3 256.3 184C263 181.6 268.4 177.4 273 173.3C273.6 178.9 276.3 182.9 280.6 184.4C283.8 185.6 286.9 186.1 289.8 186.1C293.5 186.1 296.8 185.2 299.8 183.3C302.4 181.6 304.6 179.5 306.6 177.3C307.2 176.6 307.9 176 308.5 175.4C309.2 176.9 309.9 178.5 311.1 180C315.4 185.5 321.2 186.2 325.1 186.2C327 186.2 328.9 186 330.8 185.9C333.5 185.6 334.5 184.1 334.8 183.2C335.4 181.6 334.9 179.7 333.3 178.1C330.1 174.8 329.2 170.8 330.2 164.1C331.2 157.4 333.4 150.8 337 143.8C338.9 140.1 337.5 137.4 335.7 136C333.5 134.4 331 132.6 328.1 132C327.4 131.8 327 131.7 326.9 131.7C326.9 131.6 326.8 131.3 326.8 130.8C326.6 124.6 322.5 120 316.3 119C314.5 119 313 118.8 311.5 118.8ZM256.7 138.5C257 138.2 257.4 137.9 257.8 137.6C257.1 141 253.7 145.4 250.2 147.7C250.3 147.4 250.5 147.1 250.6 146.7C250.7 146.6 250.7 146.5 250.8 146.3C252.3 143.2 254.1 140.6 256.5 138.6C256.6 138.6 256.7 138.5 256.7 138.5ZM297 162.6C296.8 162.6 296.7 162.5 296.7 162.5C296.6 162.4 296.4 161.9 296.4 161C296.6 157.6 297.4 154.6 298.5 152.2C300.9 147.1 303.6 141.9 308.2 138.1L308.5 137.9C308.5 137.9 308.5 137.9 308.6 137.8C308.5 138 308.4 138.2 308.3 138.5C308.2 138.7 308.1 139.1 307.9 139.4C307.3 140.8 306.4 142.7 307.4 144.5C307.4 144.6 307.5 144.7 307.5 144.8C308 145.6 309 146.9 310.9 147.3C307.6 153.1 304.2 158.4 298.6 161.9C297.8 162.5 297.3 162.6 297 162.6Z" fill="white"/>
<path d="M299.1 123.5C304.3 120.1 310 119.2 315.9 120.2C321.2 121 325.1 124.9 325.5 130.5V131C325.5 132.2 325.8 132.5 325.8 132.5C325.9 132.6 326.2 132.8 327.1 133L327.5 133.1C330.3 133.7 332.8 135.6 334.7 136.9L334.9 137.1C335.9 137.9 336.4 139 336.5 140.2C336.6 141.4 336.2 142.5 335.7 143.5C332.3 150.1 329.9 156.9 328.8 164.1C327.9 169.8 328.2 174.9 332.1 178.9C332.5 179.3 332.8 179.7 333.1 180.2C333.4 180.7 333.6 181.3 333.6 182.1C333.6 182.9 333.2 183.8 332.5 184.3C331.8 184.8 331 185 330.3 185.1C324.3 185.7 316.9 186.3 311.7 180L311.5 179.7C310.7 178.7 310.2 177.7 309.7 176.7C309.5 176.2 309.2 175.7 309 175.2C308.8 174.8 308.6 174.4 308.5 174C308.3 174.2 308.2 174.3 308 174.5C306.5 175.9 305.3 177.2 303.8 178.7C302.3 180.1 300.8 181.6 298.9 182.7C293 186.4 286.4 185.7 280.6 183.7C275.8 182 274.1 177.4 273.7 173.2C273.6 172.6 273.6 172.1 273.6 171.5C273.5 171.5 273.5 171.6 273.4 171.6C268.3 176.2 262.7 180.8 255.7 183.3C249.2 185.6 242.4 185.5 236 184C226.9 181.9 222.1 172.9 222.8 163.3C223.7 151.7 229.6 142.7 236.9 134.9C242.2 129.2 248.4 124.3 256.5 122.2C260.6 121.2 264.8 121 269.1 122C272.9 122.9 275.8 124.7 277.6 127.5C279.4 130.3 279.9 133.8 279.2 137.6C277.7 146 272.5 151.9 266.1 156.4C260.6 160.3 254.5 162.3 248.1 163.4C247.8 163.5 247.2 163.6 246.7 163.8C246.8 164.5 247.2 165.3 247.6 165.8C248.6 167.1 250.3 167.2 252.8 166.9C259.1 166 264.5 162.8 270.2 159.1C273.9 156.7 276.2 153.6 278 149.2C282.3 138.9 289.2 130.4 298.4 123.9L299.1 123.5ZM315.6 122.2C309.9 121.3 304.5 122.2 299.7 125.5L298.9 126.1C290.4 132.3 284.1 140.4 280.1 150L279.7 150.9C277.8 155.1 275.3 158.4 271.5 160.8C265.9 164.4 260.1 167.9 253.3 168.9L252.8 169C250.5 169.3 248.1 169.2 246.4 167.3L246.2 167.1C245.3 166 244.7 164.4 244.7 163C244.7 162.5 246.4 161.7 247.6 161.5H247.8C254 160.4 259.8 158.4 265 154.8C271.2 150.4 275.9 145 277.3 137.3C278.5 130.6 275.6 125.9 269.3 124.2L268.7 124C264.8 123.1 260.9 123.2 257.1 124.2C249.5 126.1 243.6 130.7 238.5 136.3L237.8 137C231 144.5 225.7 152.9 224.9 163.5V164.3C224.5 172.9 229 180.3 236.6 182.1C242.8 183.5 249.1 183.6 255.2 181.5C261.8 179.2 267.1 174.8 272.2 170.2C273.1 169.4 274.1 168.7 275.4 167.6C275.6 169.9 275.6 171.5 275.8 173.1C276.2 177 277.8 180.6 281.4 181.9C286.8 183.9 292.8 184.4 297.9 181.1C301.2 179 303.8 175.8 306.7 173.1C307.5 172.3 308.2 171.5 309.3 170.3C309.7 171.5 309.9 172.3 310.3 173C311.2 174.9 312 176.9 313.2 178.6C317.7 184.3 324 183.9 330.2 183.3C332.2 183.1 331.9 181.8 331 180.7L330.8 180.5C326.2 175.8 326 169.9 326.9 164C328 157 330.3 150.4 333.4 144L334 142.7C334.8 141.2 334.8 139.8 333.8 138.9L333.6 138.7C331.6 137.3 329.4 135.7 327.1 135.2C324.7 134.7 323.6 134.1 323.4 131.7V131.2C323.4 126.2 320.2 122.9 315.6 122.2ZM306.3 135.8C307.7 134.6 309.4 133 311.3 134.4C311.8 134.7 312 135.1 312.2 135.5C312.7 136.8 311.6 138.2 311.2 139.5C310.8 140.8 309.6 142.4 310.1 143.3C310.1 143.3 310.1 143.4 310.2 143.4C311.2 145.2 313.3 144.8 315.2 144.4C315.4 144.4 315.6 144.4 316.1 144.5C316.1 144.5 316.1 144.5 316.2 144.5C312 152.2 308.1 159.9 300.4 164.7C299.2 165.4 298.1 165.7 297.1 165.7H297H296.8C294.8 165.6 293.4 163.9 293.5 161.1V160.8C293.7 157.5 294.4 153.9 295.9 150.9C298.4 145.3 301.3 139.8 306.3 135.8ZM309.8 135.8C309.8 135.8 309.6 135.8 309.4 135.9C308.9 136.1 308.4 136.6 307.5 137.3C303 141 300.2 146.2 297.5 151.7C296.2 154.4 295.6 157.7 295.3 160.9C295.2 162.1 295.5 162.7 295.7 163.1C295.9 163.4 296.3 163.6 296.8 163.6C297.3 163.6 298.1 163.4 299 162.9C305.2 159.1 308.7 153.2 312.3 146.7C312.2 146.7 312 146.7 311.9 146.7C310.6 146.6 309.1 146 308.2 144.5C308.2 144.5 308.2 144.5 308.2 144.4C308.2 144.3 308.1 144.3 308.1 144.3C307.7 143.5 307.8 142.8 307.8 142.3C307.9 141.8 308.1 141.3 308.2 140.9C308.4 140.5 308.6 140.1 308.7 139.8C308.9 139.5 309 139.2 309 139C309.1 138.6 309.3 138.1 309.5 137.8C309.7 137.4 309.8 137.2 309.9 136.9C310 136.6 310 136.4 310.1 136.4C310.1 136.4 310 136.3 309.9 136.3C309.9 135.8 309.8 135.8 309.8 135.8ZM256.5 134.8C257.4 134.2 259.1 133.9 260.1 134.3C260.7 134.6 261 136.4 260.9 137.5C260.2 143.3 253.5 150.7 247.8 152.1C247.3 152.2 246.7 152.2 245.6 152.3C246.2 150.2 246.9 148.2 247.7 146.3L248.1 145.5C248.2 145.3 248.3 145.2 248.3 145C249.9 141.7 251.9 138.7 254.8 136.3C255.2 135.9 255.7 135.6 256.2 135.2L256.5 134.8ZM258.6 136.2C258.3 136.2 258 136.3 257.8 136.4L257.7 136.5C257.1 136.9 256.6 137.3 256.1 137.8L256 137.9C253.4 140.1 251.5 142.8 250 145.9C249.9 146 249.9 146.2 249.8 146.3C249.3 147.4 248.8 148.6 248.4 149.8C250.5 149 252.7 147.3 254.7 145.1C257 142.5 258.6 139.6 258.9 137.3C258.9 137.2 258.9 137 258.9 136.7C258.9 136.5 258.9 136.3 258.8 136.1C258.8 136.2 258.7 136.2 258.6 136.2Z" fill="white"/>
<path d="M379.9 184.5C377.7 184.5 375.7 184.4 373.9 184.3C369.5 183.9 366.5 180.6 366.3 175.9C366 169 367.7 162.4 369.7 155.7C370.1 154.3 370.6 152.9 371 151.6C371.5 150.2 371.9 148.8 372.4 147.3C370.6 149 368.7 150.8 367 152.6C359.4 160.6 355.6 167.7 354.5 175.7C354.4 176.6 354.4 177.4 354.3 178.3V178.8C354.2 180.5 354.1 183.1 351.2 183.1C350.8 183.1 350.4 183.1 349.9 183C346.3 182.4 342 181.7 338.1 180.3C333.6 178.7 331 174.7 331.7 170.2C332.7 163.3 333.9 156 336 149.1C337.6 143.8 339.7 138.5 341.7 133.4C342.9 130.4 344.1 127.2 345.3 124.1C346.1 121.9 347.4 120.9 349.2 120.9C349.6 120.9 350 121 350.5 121.1C351.1 121.2 351.7 121.4 352.3 121.5C354.7 122 357.1 122.6 359.3 123.6C364.1 125.9 365.6 130.1 363.5 135.1C362.3 138 360.9 140.9 359.5 143.6C359.8 143.3 360.1 143 360.4 142.7C364.3 138.9 368.3 135 372.5 131.4C378.2 126.6 383.2 123.9 388.4 122.6C389.6 122.3 391.1 122 392.6 122C395.3 122 397.4 123 399.1 125.1C401.5 128.1 401.9 131.5 400.2 135C395.9 143.8 392.2 151.8 390.6 160.5C389.9 164.2 389.6 168.1 389.9 171.7C390 173.5 391.2 175.5 392.2 177.3L392.4 177.6C392.9 178.5 393.5 179.7 393.1 181C392.8 181.8 392.2 182.5 391.2 183C390 183.6 388.2 184.3 386.4 184.4C384.2 184.4 382 184.5 379.9 184.5Z" fill="#FACC15"/>
<path d="M349.1 121.6C349.4 121.6 349.8 121.6 350.2 121.7C353.1 122.4 356.1 122.9 358.8 124.2C363.2 126.3 364.4 130 362.5 134.4C360.8 138.5 358.7 142.5 356.8 146.6C356.5 147.2 356.2 147.8 356.1 148C361.6 142.8 367.1 137 373.1 132C377.6 128.2 382.7 124.8 388.6 123.4C389.9 123.1 391.2 122.8 392.5 122.8C394.6 122.8 396.6 123.4 398.2 125.5C400.4 128.2 400.7 131.2 399.1 134.4C395.1 142.7 391.1 151 389.4 160.1C388.7 163.8 388.4 167.7 388.6 171.5C388.7 173.7 390.1 175.9 391.2 177.9C392.2 179.7 392.3 181 390.4 181.9C389 182.6 387.5 183.1 386 183.2C383.9 183.3 381.8 183.3 379.8 183.3C377.8 183.3 375.8 183.2 373.9 183.1C369.9 182.8 367.4 179.7 367.2 175.7C366.9 168.8 368.6 162.3 370.5 155.8C371.6 151.9 373.2 148.2 374.1 144C371.4 146.6 368.7 149 366.1 151.7C359.7 158.4 354.6 165.9 353.4 175.4C353.3 176.4 353.2 177.5 353.2 178.6C353.1 181 352.7 181.9 351.1 181.9C350.8 181.9 350.4 181.9 350 181.8C346.1 181.2 342.1 180.5 338.4 179.1C334.4 177.7 332 174.3 332.6 170.1C333.6 163 334.8 155.9 336.9 149.1C339.5 140.6 343.2 132.5 346.2 124.1C346.8 122.5 347.7 121.6 349.1 121.6ZM349.1 119.6C347.5 119.6 345.4 120.3 344.3 123.5C343.2 126.6 341.9 129.7 340.7 132.7C338.7 137.8 336.6 143.1 334.9 148.5C332.8 155.5 331.5 162.9 330.5 169.8C329.8 174.8 332.6 179.2 337.6 180.9C341.6 182.3 345.9 183.1 349.6 183.7C350.2 183.8 350.6 183.8 351 183.8C355 183.8 355.1 180.1 355.1 178.6V178.1C355.1 177.2 355.2 176.4 355.3 175.6C356.3 167.8 360.1 160.8 367.5 153C368.3 152.1 369.2 151.2 370.1 150.4C370 150.6 370 150.8 369.9 151C369.4 152.4 369 153.8 368.6 155.2C366.6 162 364.9 168.7 365.2 175.8C365.4 181 368.9 184.7 373.7 185.1C375.6 185.3 377.5 185.3 379.8 185.3C381.9 185.3 384.1 185.2 386.1 185.2C388.1 185.1 390 184.3 391.3 183.7C392.6 183.1 393.4 182.2 393.8 181.1C394.2 179.9 393.9 178.5 393 176.9L392.8 176.6C391.8 174.9 390.7 173 390.6 171.4C390.4 167.9 390.6 164.1 391.3 160.5C393 151.3 397.4 142.4 400.8 135.3C402.7 131.4 402.3 127.6 399.6 124.3C397.8 122 395.3 120.9 392.3 120.9C390.7 120.9 389.1 121.2 387.9 121.5C380.9 123.2 375.2 127.4 371.6 130.5C368.5 133.1 365.5 136 362.6 138.8C363.1 137.6 363.7 136.4 364.2 135.3C366.5 129.7 364.8 125.1 359.5 122.5C357.2 121.4 354.7 120.8 352.3 120.3C351.7 120.2 351.1 120 350.5 119.9C350.1 119.7 349.6 119.6 349.1 119.6Z" fill="white"/>
<path d="M346.7 120.3C348 119.5 349.4 119.5 350.7 119.8C353.4 120.5 356.8 121 359.7 122.4C362.2 123.6 364.1 125.4 364.9 127.8C365.7 130.1 365.4 132.7 364.4 135.2C363.9 136.4 363.4 137.6 362.8 138.7C365.7 135.9 368.7 133.1 371.9 130.4C376.5 126.5 381.9 122.9 388.2 121.4C390 121 392 120.6 394 120.9C396.1 121.2 398.2 122.2 399.8 124.2C401.1 125.8 401.9 127.6 402.1 129.5C402.3 131.3 401.9 133.1 401.1 134.8L400.9 135.1C396.9 143.4 393 151.5 391.4 160.3C390.8 163.7 390.5 167.1 390.6 170.5V171.2C390.6 171.9 390.9 172.8 391.3 173.7C391.7 174.7 392.3 175.6 392.9 176.6L393.1 177C393.6 177.9 394 179 393.8 180.2C393.6 181.8 392.5 182.8 391.2 183.4C389.8 184.1 387.9 184.8 386 184.9C381.9 185.1 377.8 185.2 373.6 184.8C368.4 184.4 365.3 180.3 365.1 175.5C364.8 168.3 366.6 161.4 368.5 154.9C369 153.3 369.5 151.7 370 150.1C369.1 151 368.2 151.8 367.4 152.7C361.1 159.3 356.4 166.4 355.2 175.3C355.1 176.2 355.1 177.2 355 178.3C355 179 354.9 179.8 354.8 180.4C354.7 181.1 354.4 181.8 353.8 182.4C352.6 183.7 350.8 183.6 349.4 183.4C345.5 182.8 341.3 182 337.4 180.6C332.7 178.9 329.6 174.7 330.3 169.5C331.3 162.4 332.5 155.2 334.7 148.2L335.2 146.6C337.8 138.6 341.2 130.8 344 123.1C344.7 122.3 345.5 121.1 346.7 120.3ZM350.2 121.8C348.2 121.3 346.9 122.1 346.2 124.2C343.2 132.5 339.5 140.7 336.9 149.2L336.5 150.5C334.6 156.9 333.5 163.6 332.6 170.2V170.6C332.2 174.6 334.6 177.8 338.4 179.2C342.1 180.5 346.1 181.3 350 181.9C352.7 182.3 353.2 181.5 353.3 178.7C353.3 177.8 353.4 176.8 353.5 175.9V175.5C354.7 166.3 359.5 159 365.6 152.5L366.2 151.9C368.7 149.2 371.5 146.8 374.2 144.2C373.3 148.4 371.8 152.2 370.6 156C368.7 162.5 366.9 169 367.3 175.9C367.5 179.9 370 183 374 183.3C378 183.6 382.1 183.5 386.2 183.4C387.5 183.3 388.8 182.9 390.1 182.3L390.6 182.1C392.4 181.2 392.4 179.9 391.4 178.1C390.2 176.1 388.9 173.9 388.8 171.7C388.6 167.9 388.9 164 389.6 160.3C391.3 151.2 395.3 142.8 399.3 134.6C400.8 131.5 400.6 128.7 398.6 126L398.4 125.7C395.7 122.4 392.2 122.8 388.8 123.6L388.2 123.7C382.5 125.2 377.6 128.4 373.3 132.1L372.2 133.1C366.6 137.9 361.5 143.2 356.3 148.2C356.4 147.9 356.7 147.4 357 146.8C358.7 143.3 360.5 139.8 362 136.2L362.7 134.7C364.6 130.2 363.4 126.6 359 124.5C356.1 123 353.1 122.5 350.2 121.8Z" fill="#F0FDF4"/>
<path d="M226.7 230.8C227.1 230.9 227.6 230.9 228 230.9C234.3 230.9 240.6 230.9 246.9 230.9C251.9 230.9 257 230.8 262 230.7C264.8 230.7 268.6 227.8 269.4 225C269.9 223.2 270.4 221.4 271.5 219.8C273 217.7 274.5 216 277.1 215.6C277.8 215.5 278.2 215.1 278.2 214.4C278.2 212.1 278.2 209.8 278.2 207.4C278.1 205 276.9 203.5 274.5 203.1C272.9 202.8 271.4 202.6 269.8 202.6C263.1 202.5 256.4 202.6 249.7 202.6C249.7 202.6 240.9 202.5 236.4 202.6C233.6 202.6 230.8 202.7 228 202.8C225.4 202.9 224.2 204.1 224.2 206.5C224.2 213.8 224.3 221.1 224.4 228.4C224.5 229.8 225.2 230.6 226.7 230.8Z" fill="#FACC15"/>
<path d="M217.2 232.7C212.9 232.4 208.6 232.2 204.3 232.2C196.6 232.2 188.9 232.3 181.2 232.7C176.8 232.9 172.7 234.4 169.2 237.2C167.4 238.7 166.3 240.5 166.3 242.9C166.3 245.3 166.3 247.7 166.3 250.1C166.3 252.9 166.9 253.5 169.7 253.5C178.1 253.5 186.4 253.5 194.8 253.5C203.3 253.5 211.8 253.5 220.3 253.5C222.3 253.5 222.9 252.9 222.9 251C222.9 246.2 222.9 241.4 223 236.6C223 235.2 223.3 233 217.2 232.7Z" fill="#FACC15"/>
<path d="M299.9 30.7C306.5 32.6 311.1 30.7 314.6 24.9C313.3 31.1 314.3 36.2 320.6 39.6C313.7 37.6 308.9 39.7 305.7 45.9C307.5 39.3 306.3 34.1 299.9 30.7Z" fill="white"/>
<path d="M316.1 25.1C315.5 28.1 315.4 30.6 316.2 32.7C316.9 34.7 318.4 36.6 321.3 38.1L334.7 45.2L320.1 41C316.9 40.1 314.4 40.1 312.3 41C310.3 41.9 308.5 43.6 306.9 46.5L299.9 59.7L304.1 45.3C305 42.2 305.1 39.7 304.4 37.5C303.7 35.4 302.1 33.5 299.1 32L286.4 25.2L300.2 29.1C303.3 30 305.7 29.9 307.7 29.1C309.7 28.3 311.5 26.7 313.1 24L317.8 16.1L316.1 25.1ZM312.5 29.8C311.4 30.8 310.2 31.5 308.9 32C307.7 32.5 306.5 32.7 305.2 32.8C306.2 33.9 306.9 35.2 307.3 36.5C307.7 37.6 307.9 38.8 307.9 40.1C308.9 39.3 309.9 38.6 311.1 38.1C312.4 37.6 313.7 37.3 315.2 37.2C314.3 36.1 313.7 35 313.2 33.7C312.8 32.5 312.6 31.2 312.5 29.8Z" fill="#FACC15"/>
<path d="M356.9 17C366.2 19.6 372.8 17 377.8 8.70001C376 17.5 377.3 24.8 386.3 29.5C376.5 26.7 369.7 29.6 365.1 38.4C367.7 29.3 366 21.9 356.9 17Z" fill="white"/>
<path d="M379.2 9.00001C378.3 13.3 378.2 17 379.3 20.1C380.4 23.2 382.7 25.9 386.9 28.1L400.3 35.2L385.7 30.9C381.1 29.5 377.3 29.6 374.2 30.9C371.1 32.2 368.5 34.8 366.2 39L359.2 52.2L363.4 37.8C364.7 33.4 364.9 29.6 363.8 26.4C362.7 23.3 360.4 20.5 356 18.1L343.3 11.3L357.2 15.2C361.6 16.5 365.3 16.4 368.3 15.2C371.3 14 374 11.5 376.3 7.60001L381 -0.299988L379.2 9.00001ZM375.5 14.3C373.7 16.1 371.8 17.5 369.5 18.4C367.5 19.2 365.3 19.6 363 19.6C364.8 21.4 366.1 23.4 366.9 25.7C367.6 27.7 367.8 29.9 367.7 32.1C369.3 30.4 371.1 29.2 373.1 28.3C375.3 27.4 377.6 27 380.1 27C378.4 25.3 377.2 23.3 376.5 21.2C375.7 19 375.4 16.7 375.5 14.3Z" fill="#FACC15"/>
<path d="M376 95.3C379 88.4 377.6 83 371.7 78.3C378.3 80.6 384.1 80.3 388.7 73.9C385.5 81.1 387.1 86.7 393.4 91.2C386.6 88.2 380.7 88.7 376 95.3Z" fill="white"/>
<path d="M390.1 74.5C388.6 77.9 388.3 80.7 389 83.2C389.7 85.6 391.4 87.9 394.3 90L406.4 98.7L392.8 92.7C389.5 91.3 386.7 90.8 384.2 91.2C381.8 91.7 379.4 93.2 377.2 96.2L368.8 107.9L374.5 94.7C375.9 91.4 376.2 88.7 375.6 86.3C375 83.9 373.4 81.7 370.7 79.5L363.5 73.8L372.2 76.9C375.4 78 378.2 78.4 380.6 77.9C383 77.4 385.3 76 387.4 73L396.2 60.6L390.1 74.5ZM385.6 79.1C384.2 80 382.8 80.6 381.3 80.9C379.8 81.2 378.2 81.3 376.6 81.1C377.6 82.5 378.3 84 378.7 85.6C379.1 87.1 379.2 88.6 379 90.1C380.4 89.1 382 88.5 383.6 88.1C385 87.8 386.5 87.8 387.9 88C387 86.7 386.4 85.4 386 84C385.6 82.4 385.4 80.8 385.6 79.1Z" fill="#FACC15"/>
<path d="M104.2 292.4C109.8 296.2 114.9 295.9 120 291.4C116.8 296.9 116.1 302 121.1 307.2C115.2 303.2 110 303.6 104.9 308.5C108.7 303 109.3 297.7 104.2 292.4Z" fill="white"/>
<path d="M105.1 291.1C107.7 292.9 110.1 293.6 112.2 293.4C114.4 293.3 116.6 292.3 119 290.2L126 284.2L121.4 292.2C119.9 294.8 119.1 297.2 119.1 299.4C119.1 301.6 120 303.8 122.3 306.1L132.8 317L120.3 308.4C117.5 306.5 115.1 305.8 112.9 306C110.7 306.2 108.4 307.3 106.1 309.6L95.2 320L103.6 307.7C105.4 305.1 106.3 302.7 106.3 300.4C106.3 298.2 105.4 295.9 103 293.5L93 283.1L105.1 291.1ZM116.5 295.5C115.2 296.1 113.8 296.4 112.4 296.5C111.1 296.6 109.9 296.4 108.6 296.1C109.2 297.5 109.4 298.9 109.5 300.3C109.5 301.5 109.3 302.7 109 303.9C110.2 303.4 111.4 303.1 112.6 303C114 302.9 115.4 303 116.8 303.4C116.3 302.1 116 300.8 116 299.5C115.9 298.2 116.1 296.9 116.5 295.5Z" fill="#FACC15"/>
<path d="M107 260.6C112.6 252.7 112.3 245.5 106.1 238.2C113.8 242.9 121.1 244 128.6 237.1C122.7 245.3 123.2 252.8 129.9 260.1C122.1 254.5 114.7 253.6 107 260.6Z" fill="white"/>
<path d="M129.9 238C127.1 241.9 125.9 245.5 126.1 248.8C126.3 252.1 127.9 255.5 131.1 259L141.2 270L129.1 261.3C125.3 258.6 121.8 257.2 118.5 257.1C115.2 257.1 111.7 258.4 108.1 261.7L97.5 271.4L105.8 259.6C108.5 255.8 109.6 252.4 109.5 249.1C109.4 245.8 107.9 242.5 105 239L99.1 231.9L107 236.7C110.7 239 114.2 240.3 117.5 240.3C120.8 240.3 124.1 239.1 127.6 235.8L138.8 225.5L129.9 238ZM124.1 242C121.9 243 119.7 243.5 117.4 243.5C115.1 243.5 112.8 243 110.6 242.1C111.7 244.4 112.4 246.7 112.5 249.1C112.6 251.3 112.2 253.5 111.4 255.6C113.7 254.5 116.1 254 118.4 254C120.5 254 122.6 254.5 124.7 255.3C123.7 253.2 123.1 251.1 122.9 248.9C122.8 246.7 123.2 244.4 124.1 242Z" fill="#FACC15"/>
<path d="M52.8999 269.6C57.6999 263.7 57.7999 258.1 53.3999 252.1C59.1999 256.1 64.7999 257.4 70.9999 252.4C65.9999 258.5 65.9999 264.3 70.8999 270.4C64.9999 265.6 59.2999 264.5 52.8999 269.6Z" fill="white"/>
<path d="M72.1999 253.4C69.7999 256.3 68.8 258.9 68.8 261.4C68.8 263.9 69.7999 266.5 72.0999 269.4L81.4 281L69.9 271.6C67.1 269.3 64.5 268.1 62 267.9C59.5 267.7 56.9 268.5 53.9 270.9L42.7 279.9L51.7999 268.7C53.9999 265.9 55.0999 263.4 55.0999 261C55.1999 258.5 54.3 256 52.2 253.1L46.7999 245.6L54.4 250.9C57.2 252.8 59.7 254 62.2 254.2C64.6 254.4 67.1999 253.6 70.0999 251.3L81.9 241.8L72.1999 253.4ZM57.2999 256C57.8999 257.6 58.1999 259.3 58.0999 260.9C58.0999 262.4 57.8 263.9 57.2 265.3C58.9 264.7 60.5 264.5 62.2 264.7C63.6 264.8 65 265.2 66.4 265.7C65.9 264.3 65.5999 262.8 65.5999 261.3C65.5999 259.7 65.8999 258.1 66.5999 256.5C64.9999 257 63.5 257.2 61.9 257.1C60.3 257 58.7999 256.6 57.2999 256Z" fill="#FACC15"/>
<path d="M315.1 144.2C313.2 144.6 311.1 145 310 143.1C309.6 142.3 310.7 140.6 311.1 139.3C311.7 137.6 313.3 135.7 311.2 134.2C309.3 132.9 307.6 134.5 306.2 135.6C301.3 139.6 298.3 145.2 295.7 150.8C294.3 153.8 293.6 157.3 293.3 160.7C293 165.1 296.4 166.9 300.1 164.5C307.9 159.7 311.7 151.9 316 144.2C315.6 144.2 315.3 144.1 315.1 144.2Z" fill="white" stroke="white" stroke-miterlimit="10"/>
<path d="M261.5 137.4C261.6 136.3 261.4 134.3 260.7 134C259.7 133.6 257.9 133.8 256.9 134.5C250.6 138.9 247.3 145.4 245.2 153.1C246.4 153 247 153 247.6 152.9C253.6 151.4 260.7 143.6 261.5 137.4Z" fill="white"/>
<path d="M139.7 135.6C139.4 133.1 139.2 130.6 136.2 129.7C133.9 129 131.2 130.3 129.3 132.9C126.5 136.7 125.3 141.1 125.3 145.7C125.3 151.2 127.9 154.3 133.2 155.7C135.4 156.3 136.8 155.8 137.3 153.4C138.3 148.2 139.3 143.1 140.3 137.9C140.2 137.9 140 137.8 139.9 137.8C139.8 137.2 139.8 136.4 139.7 135.6Z" fill="white"/>
<path d="M407.6 126.6C405.5 118.3 396.3 115.9 388 117.6C382.6 118.7 377.6 120.9 373.2 124.2C370.2 126.4 370.1 126.4 367.7 123.5C363.3 118.3 357.8 115.7 351.1 115.6C344.9 115.5 341.8 118 340.4 124C339.7 127.1 338.2 130 337 133.5C335.8 132.5 335.1 132 334.6 131.3C332.3 128.4 330.1 125.4 327.8 122.5C322.2 115.4 314.8 113.9 306.5 115.9C298.6 117.8 292.9 123 287.4 128.6C286.8 129.2 286.2 129.8 285.4 130.5C284.7 129.2 284.2 128.3 283.6 127.4C279.9 120.8 274.3 117.4 266.9 116.6C256.5 115.6 247.7 118.9 240 125.8C239.4 126.3 238.7 126.7 238 127.1C237.9 126 238.2 125.3 238.5 124.7C240.7 120.5 242.9 116.3 245.1 112.2C247.3 108.1 248.4 103.7 247.2 99.2C245.9 94.4 242.1 92.1 237.8 90.4C237.7 90.4 237.6 90.3 237.5 90.3H237.4C237.1 90.2 236.8 90.1 236.6 90C236.1 89.8 235.6 89.7 235.3 89.5C232.6 88.7 229.8 88.6 229.8 88.6C229.6 88.6 222 88.1 216.2 93.1L216.1 93.2C211.8 97.1 209.9 104.4 209.4 106.5C209.4 106.7 209.3 106.8 209.3 107C208.1 111 206.6 114.8 205.2 118.7C205.1 119.1 204.9 119.5 204.6 120C203.4 118.9 202.7 118.3 202 117.7C198.2 114.2 193.9 112.2 188.6 112C179.8 111.7 172.9 115.8 166.7 121.3C164.3 123.4 162.1 125.7 159.6 128.1C159.2 127.4 158.8 127.1 158.6 126.7C153.6 112.7 133 109.4 123.9 117C122.6 118.1 120.6 118.5 119 119.3C118.9 119.1 118.8 118.9 118.7 118.7C119.8 116.1 121.3 113.6 122.1 110.9C123.2 107.4 124.7 103.6 123 100C121.5 97 119.6 94 117.4 91.5C111 84.5 102.2 82.1 93.4 81.6C79.8 80.9 67 84.4 55.9 92.6C46.7 99.4 40 107.9 37.8 119.5C36.3 127.9 37.7 135.7 43.2 142.3C48.9 149.2 55.3 155.5 61.4 162.1C66.5 167.6 67.1 174.5 62.8 180.7C57.9 187.9 51.2 191.9 42.2 191.5C39.3 191.4 37.9 190 38.4 187.2C38.7 185.6 39.3 183.8 40.2 182.5C43 178.8 46.6 176.6 51.3 176.2C56.9 175.7 60.5 171.3 59.8 165.8C59.2 160.6 54.5 155.5 48.6 154.2C32.2 150.5 18.6 155.5 7.9 168.1C0.599998 176.7 -1.3 187 1.5 198C3.9 207.3 10.5 213.1 18.5 217.5C27.6 222.5 37.4 223.2 47.5 221.9C65.9 219.6 81.2 211.7 92.7 197C94.6 194.6 96.1 191.8 97.6 189.1C98.7 187.1 99.8 186.5 101.8 187.9C103.1 188.9 104.6 189.7 106.1 190.2C114.6 192.7 123.2 192.6 131 188.4C135.9 185.8 140.1 181.9 144.7 178.6C145.4 178.1 146.1 177.6 146.8 177.1C147.1 177.7 147.3 178 147.4 178.2C150.2 185.7 156.1 189.3 163.5 190.4C171.8 191.7 179.9 190.1 187.5 186.3C189.5 185.3 191.5 184.1 193.4 182.9C194.5 182.3 195.3 182.2 196 183.5C199.4 189.5 205 191.6 211.4 191.9C216.8 192.2 222.1 191.8 226.4 188.1C228 186.7 229.1 186.5 230.9 187.3C237.8 190.7 245 190.6 252.4 189.3C258.5 188.3 263.6 185.4 268.6 182.2C270.3 181.1 271.3 181.1 272.2 183.1C273.8 186.5 276.5 188.6 280 189.6C286.8 191.5 293.4 191.4 299.6 187.8C301.8 186.5 303.7 184.9 305.8 183.4C306.8 182.7 307.7 182 308.7 183.4C314 190.9 321.8 191.3 329.7 190.7C331.6 190.6 333.5 189.3 335 188.1C336.3 187.1 337.2 186.9 338.7 187.2C342.1 188 345.5 188.9 349 189.3C355.4 190.1 359.4 186.6 359.5 180.1C359.5 178.7 359.3 177.3 359.5 175.9C359.7 174.4 360.3 172.9 360.7 171.3C361 171.4 361.2 171.4 361.5 171.5C361.5 173.3 361.4 175.2 361.5 177C361.8 184.4 366.1 189.5 373.4 190.6C376.4 191.1 379.6 191.3 382.7 191.2C387.3 191 391.8 190.3 395.5 187.1C399.5 183.7 400 178.7 396.7 174.5C395.9 173.4 395.3 171.9 395.2 170.6C394.9 164.4 396.3 158.4 398.5 152.7C400.6 147.2 403.3 141.8 405.6 136.3C406.3 134.5 408.6 130.3 407.6 126.6ZM84.6 194.6C72.8 207.8 58 214 41.7 214.6C34 214.5 27.5 214 21.5 210.9C13.4 206.8 7.9 200.6 6.5 191.4C5.5 184.6 7.4 178.4 11.5 173.1C19.8 162.5 30.5 157.5 44.1 159.6C47.5 160.1 50.2 162 51.6 165.2C52.6 167.4 52 168.3 49.7 168.7C42.1 170.2 35.8 173.6 31.9 180.7C27.4 189.2 32 197.3 41.6 197.8C54 198.4 69.3 188.7 71.2 174.1C71.9 168.6 70.8 163.6 67.2 159.5C62.1 153.7 56.6 148.2 51.3 142.6C45.8 136.9 42.5 130.4 43.1 122.2C43.5 117.4 45.2 113.1 47.8 109.2C54.8 99 64.7 93 76.3 89.7C83.2 87.7 90.3 86.9 97.3 88.3C100.9 89 104.7 90.1 107.9 91.8C115.9 96.1 118 105.2 113.1 112.8C109.6 118.2 104.6 121.3 98.2 122.1C95.4 122.5 95 121.8 96 119.2C97.6 115.5 98.4 111.7 96.2 107.9C93.9 103.9 90.1 102.9 85.9 103.2C81.1 103.6 77.4 105.8 75.6 110.6C73.5 116.4 74.9 121.8 77.8 126.8C80.6 131.6 83.9 136 87.1 140.5C99.7 157.6 98.7 178.8 84.6 194.6ZM96.8 142.2C95.6 140.4 94.5 138.6 93.3 136.8C91.1 133.4 88.8 130 86.5 126.7C84.3 123.6 82.8 120.2 82.5 116.4C82.2 112.7 84.9 110 88.5 110.5C91 110.8 92.3 113 91.4 115.3C90.8 116.8 90 118.2 89.2 119.7C87.1 123.6 88.6 127.3 92.8 128.6C96.6 129.8 100.4 129.1 104.1 128.3C104.9 128.1 105.8 127.9 107 127.7C103.4 132.6 100.2 137.2 96.8 142.2ZM209.4 183.7C201.8 182.4 199.2 177 198.9 169.1C196.9 170.9 195.4 172.1 194.1 173.4C185.5 181.8 175.1 184.4 163.5 182.6C157.3 181.6 153.8 177.5 152.3 171.7C151.7 169.1 151.7 166.4 151.4 163.7C151.3 162.9 151.1 161.5 150.7 161.4C149.9 161.2 148.8 161.6 148 162C147.4 162.3 146.9 163 146.6 163.6C142.8 170.7 137.6 176.4 130.7 180.5C123.7 184.6 116.1 185.8 108.4 183.3C101.7 181.2 98.8 175.7 98 169.1C95.9 149.9 104.8 134.7 120.8 125.4C127.1 121.7 134.2 120.9 141.4 122.5C148.7 124.1 153.1 129.9 153.2 138.7C153.2 142.6 152.4 146.5 151.9 150.3C151.8 151.1 151.8 151.9 151.7 152.6C152 152.7 152.3 152.9 152.6 153C153.1 152.2 153.7 151.4 154 150.6C156.9 141.1 162.3 133.3 169.4 126.6C174.5 121.9 180.3 119.2 187.5 119.2C198.7 119.2 202.7 129.4 198.5 137.9C196.7 141.5 193.9 144.1 189.9 144.9C188.2 145.2 186.3 145.1 184.7 144.5C181.7 143.4 181.1 141.3 182.7 138.5C183.5 137 184.4 135.5 185.1 134C185.3 133.5 185.3 132.5 184.9 132.3C184.5 132 183.5 132.1 183.1 132.4C181.3 134 179.2 135.5 177.9 137.5C174.3 142.9 171.3 148.6 170.6 155.2C170.6 155.5 170.5 155.8 170.4 156.2C169.4 164.9 173.7 168.9 182.2 167.2C189.9 165.7 195.8 161.1 200.8 155.4C201.6 154.4 201.8 152.9 202.1 151.5C205.7 135.4 210.8 119.7 217.1 104.5C220.8 95.6 231.4 93.1 239.1 99C241.9 101.2 242 102.1 240.4 105.2C235.4 115.3 229.8 125.1 225.6 135.5C222.2 143.9 219.9 152.8 217.9 161.7C216.3 168.7 216.5 175.9 221.9 182.1C218.1 185.1 213.7 184.4 209.4 183.7ZM330.3 183C324.1 183.6 317.7 184 313.3 178.3C312 176.7 311.3 174.6 310.4 172.7C310.1 172 309.9 171.2 309.4 170C308.3 171.2 307.6 172 306.8 172.8C303.9 175.5 301.3 178.7 298 180.8C292.9 184.1 286.9 183.6 281.5 181.6C277.8 180.3 276.2 176.7 275.9 172.8C275.7 171.2 275.7 169.6 275.5 167.3C274.2 168.4 273.2 169.1 272.3 169.9C267.2 174.5 261.9 178.9 255.3 181.2C249.2 183.4 242.9 183.3 236.7 181.8C228.8 180 224.3 172.1 225 163.2C225.8 152.2 231.4 143.7 238.6 136C243.7 130.4 249.6 125.8 257.2 123.9C261.1 122.9 264.9 122.8 268.8 123.8C275.6 125.4 278.7 130.2 277.4 137.1C276 144.8 271.3 150.3 265.1 154.6C259.9 158.3 254.1 160.2 247.9 161.3C246.7 161.5 244.8 162.3 244.8 162.9C244.8 164.3 245.4 165.9 246.3 167C248.1 169.2 250.8 169.2 253.3 168.8C260.1 167.8 265.8 164.4 271.5 160.7C275.6 158.1 278.2 154.5 280.1 149.9C284.3 140 290.9 131.7 299.8 125.4C304.6 122 310 121.2 315.7 122.1C320.3 122.8 323.5 126.2 323.6 131C323.7 133.8 324.7 134.5 327.3 135.1C329.6 135.6 331.8 137.2 333.8 138.6C335.1 139.5 335 141 334.2 142.6C330.8 149.3 328.2 156.4 327.1 163.8C326.2 169.7 326.4 175.6 331 180.3C331.9 181.3 332.4 182.8 330.3 183ZM399.1 134.5C395.1 142.8 391.1 151.1 389.4 160.3C388.7 164 388.4 167.9 388.6 171.7C388.7 173.9 390.1 176.1 391.2 178.1C392.2 179.9 392.3 181.2 390.4 182.1C389 182.8 387.5 183.4 386 183.4C382 183.6 377.9 183.7 373.8 183.3C369.8 183 367.3 179.9 367.1 175.9C366.8 169 368.5 162.5 370.4 156C371.5 152.1 373.1 148.4 374 144.2C371.3 146.8 368.6 149.2 366 151.9C359.6 158.6 354.5 166.1 353.3 175.6C353.2 176.6 353.1 177.7 353.1 178.8C353 181.6 352.5 182.4 349.8 182C345.9 181.4 341.9 180.7 338.2 179.3C334.2 177.9 331.8 174.5 332.4 170.3C333.4 163.2 334.6 156.1 336.7 149.3C339.3 140.8 343 132.7 346 124.3C346.8 122.2 348 121.4 350 121.9C352.9 122.6 355.9 123.1 358.6 124.4C363 126.5 364.2 130.2 362.3 134.6C360.6 138.7 358.5 142.7 356.6 146.8C356.3 147.4 356 148 355.9 148.2C361.4 143 366.9 137.2 372.9 132.2C377.4 128.4 382.5 125 388.4 123.6C391.8 122.8 395.4 122.4 398 125.7C400.4 128.4 400.7 131.3 399.1 134.5Z" fill="white"/>
<path d="M116.6 156.3C114.7 160.7 114.1 164.7 114.6 168.7C115 172.1 117.3 173.8 120.7 173.7C125 173.7 130.6 168.9 131.7 164.2C125.9 163.5 120.4 161.9 116.6 156.3Z" fill="white"/>
<path d="M116.5 185.4C113.7 185.4 110.9 185 108.2 184.1C101.9 182.1 98.2 177.1 97.3 169.3C95.2 150.5 103.4 134.8 120.4 124.9C124.7 122.4 129.5 121.1 134.6 121.1C136.9 121.1 139.2 121.4 141.6 121.9C149.4 123.6 153.9 129.8 154 138.8C154 141.5 153.6 144.2 153.2 146.8C153 148 152.8 149.3 152.7 150.5C152.6 151 152.6 151.5 152.6 152C152.9 151.5 153.3 151 153.4 150.5C156.2 141.4 161.3 133.4 169 126.2C174.4 121.1 180.5 118.6 187.6 118.6C192.7 118.6 196.8 120.6 199.1 124.4C201.5 128.3 201.6 133.7 199.3 138.4C197.3 142.5 194.2 145 190.2 145.8C189.5 145.9 188.8 146 188.1 146C186.9 146 185.6 145.8 184.6 145.4C183 144.8 181.9 143.9 181.5 142.8C181 141.6 181.3 140.1 182.2 138.4L182.5 137.9C183.2 136.6 184 135.3 184.6 133.9C184.7 133.7 184.7 133.3 184.6 133.1C184.5 133.1 184.5 133.1 184.3 133.1C184 133.1 183.8 133.2 183.8 133.2C183.4 133.5 183 133.9 182.6 134.2C181.2 135.4 179.7 136.6 178.7 138.1C175.7 142.5 172.3 148.4 171.5 155.4C171.5 155.6 171.4 155.8 171.4 156C171.4 156.1 171.4 156.3 171.3 156.4C170.9 160.2 171.4 163 173 164.8C174.3 166.3 176.3 167 178.8 167C179.8 167 181 166.9 182.2 166.6C188.9 165.3 194.7 161.6 200.4 155C201 154.3 201.2 153.2 201.4 152.1L201.5 151.5C204.9 136 210 120.1 216.5 104.4C218.8 98.8 224 95.3 230 95.3C233.4 95.3 236.8 96.5 239.6 98.7C242.6 101 242.9 102.3 241.2 105.8C239.8 108.5 238.4 111.2 237 113.9C233.3 121.1 229.5 128.5 226.4 136C222.8 144.7 220.6 154.1 218.8 162.1C216.9 170.4 218.1 176.7 222.6 181.8L223.1 182.4L222.4 182.9C220.2 184.5 217.8 185.2 214.8 185.2C212.8 185.2 210.8 184.9 208.9 184.5C202 183.3 198.5 178.9 197.9 170.8C197.7 171 197.4 171.2 197.2 171.4C196.1 172.4 195.1 173.2 194.2 174C187.4 180.6 179.3 183.9 169.9 183.9C167.7 183.9 165.4 183.7 163 183.3C156.8 182.3 152.9 178.5 151.2 171.8C150.8 170.1 150.6 168.3 150.5 166.6C150.4 165.7 150.4 164.7 150.2 163.8C150.1 162.7 149.9 162.3 149.9 162.1H149.8C149.3 162.1 148.6 162.3 147.9 162.7C147.7 162.8 147.3 163.2 146.8 164C142.8 171.4 137.4 177.2 130.6 181.2C126.4 183.9 121.5 185.4 116.5 185.4ZM116.7 157.8C115.2 161.6 114.8 165.1 115.2 168.6C115.6 171.5 117.4 173 120.5 173C124.3 173 129.2 168.9 130.6 164.8C125.7 164.1 120.6 162.6 116.7 157.8ZM134.5 132.2C132.9 132.2 131.1 133.3 129.8 135C127.4 138.3 126.2 142.1 126.3 146.5C126.3 151.2 128.4 153.9 133.1 155C133.6 155.1 134 155.2 134.3 155.2C135 155.2 135.7 155 136 153.5C136.7 150.1 137.3 146.7 138 143.3L138.8 139.1C139.7 135 137.5 133.3 136.9 132.9L136.7 132.8C136.4 132.6 136 132.4 135.6 132.3C135.1 132.3 134.8 132.2 134.5 132.2Z" fill="#FACC15"/>
<path d="M230.2 95.9C233.3 95.9 236.5 96.9 239.4 99.1C242.2 101.3 242.3 102.2 240.7 105.3C235.7 115.4 230.1 125.2 225.9 135.6C222.5 144 220.2 153 218.2 161.8C216.6 168.8 216.8 176 222.2 182.2C219.9 183.9 217.5 184.4 215.1 184.4C213.2 184.4 211.3 184.1 209.4 183.7C201.8 182.4 199.2 177 198.9 169.1C196.9 170.9 195.4 172.1 194.1 173.4C187.2 180.1 179.2 183.1 170.3 183.1C168.1 183.1 165.8 182.9 163.5 182.6C157.3 181.6 153.8 177.5 152.3 171.7C151.7 169.1 151.7 166.4 151.4 163.7C151.3 162.9 151.1 161.5 150.7 161.4C150.6 161.4 150.4 161.4 150.2 161.4C149.5 161.4 148.6 161.7 148 162.1C147.4 162.4 146.9 163.1 146.6 163.7C142.8 170.8 137.6 176.5 130.7 180.6C126.2 183.3 121.4 184.7 116.5 184.7C113.8 184.7 111.1 184.3 108.4 183.4C101.7 181.3 98.8001 175.8 98.0001 169.2C95.9001 150 104.8 134.8 120.8 125.5C125.1 123 129.8 121.8 134.6 121.8C136.9 121.8 139.2 122.1 141.5 122.6C148.8 124.2 153.2 130 153.3 138.8C153.4 142.7 152.5 146.6 152 150.4C151.9 151.2 151.9 152 151.8 152.7C152.1 152.8 152.4 153 152.7 153.1C153.2 152.3 153.8 151.5 154.1 150.7C157 141.2 162.4 133.4 169.5 126.7C174.6 122 180.4 119.3 187.6 119.3C198.8 119.3 202.8 129.5 198.6 138C196.8 141.6 194 144.2 190 145C189.4 145.1 188.7 145.2 188.1 145.2C187 145.2 185.8 145 184.8 144.7C181.8 143.6 181.2 141.5 182.8 138.7C183.6 137.2 184.5 135.7 185.2 134.2C185.4 133.7 185.4 132.7 185 132.5C184.8 132.4 184.6 132.3 184.2 132.3C183.8 132.3 183.4 132.4 183.2 132.6C181.4 134.2 179.3 135.7 178 137.7C174.4 143.1 171.4 148.8 170.7 155.4C170.7 155.7 170.6 156 170.5 156.4C169.6 163.8 172.6 167.8 178.8 167.8C179.9 167.8 181.1 167.7 182.3 167.4C190.1 165.9 195.9 161.3 200.9 155.6C201.7 154.6 201.9 153.1 202.2 151.7C205.8 135.6 210.8 119.9 217.2 104.7C219.7 99 224.8 95.9 230.2 95.9ZM134.2 156C135.5 156 136.3 155.3 136.6 153.7C137.5 148.9 138.5 144.1 139.4 139.4C140.6 134.4 137.1 132.4 137 132.3C136.6 132 136.2 131.8 135.7 131.7C135.3 131.6 134.9 131.5 134.5 131.5C132.7 131.5 130.7 132.7 129.2 134.6C126.6 138.1 125.5 142.2 125.5 146.5C125.5 151.6 127.9 154.5 132.8 155.8C133.4 155.9 133.8 156 134.2 156ZM120.6 173.8C124.9 173.8 130.6 169 131.7 164.3C125.9 163.5 120.4 162 116.6 156.4C114.7 160.8 114.1 164.8 114.6 168.8C115 172.1 117.2 173.8 120.6 173.8ZM230.2 94.4C223.9 94.4 218.4 98.1 216 104C209.5 119.8 204.4 135.7 201 151.3C201 151.5 200.9 151.7 200.9 151.9C200.7 152.9 200.5 153.9 200 154.5C194.4 161 188.7 164.6 182.2 165.9C181 166.1 180 166.2 179 166.2C176.6 166.2 174.9 165.5 173.7 164.3C172.3 162.7 171.7 160 172.2 156.5C172.2 156.4 172.2 156.3 172.3 156.1C172.3 155.9 172.4 155.7 172.4 155.5C173.1 148.7 176.6 142.8 179.5 138.5C180.4 137.1 181.8 136 183.2 134.8C183.3 134.7 183.5 134.6 183.6 134.4C183.1 135.4 182.5 136.5 181.9 137.5L181.6 138C180.5 139.9 180.3 141.6 180.8 143C181.3 144.4 182.5 145.4 184.4 146.1C185.6 146.5 186.9 146.7 188.2 146.7C189 146.7 189.7 146.6 190.4 146.5C194.6 145.7 198 143 200.1 138.7C202.6 133.7 202.5 128.1 199.9 123.9C197.5 120 193.1 117.8 187.8 117.8C180.5 117.8 174.3 120.4 168.7 125.6C162 131.9 157.2 138.7 154.2 146.4C154.6 143.9 154.9 141.3 154.9 138.8C154.8 129.4 150 123 141.9 121.2C139.5 120.7 137.1 120.4 134.7 120.4C129.5 120.4 124.6 121.7 120.2 124.3C102.9 134.3 94.6001 150.4 96.7001 169.5C97.6001 177.5 101.5 182.8 108.1 184.9C110.9 185.8 113.8 186.3 116.7 186.3C121.8 186.3 126.9 184.8 131.7 182C138.6 177.9 144.1 172 148.1 164.5C148.5 163.7 148.8 163.5 148.9 163.5C149.3 163.3 149.7 163.1 150 163.1C150 163.3 150.1 163.7 150.2 164.1C150.3 165 150.4 165.9 150.5 166.9C150.6 168.7 150.8 170.5 151.2 172.3C152.9 179.2 157.2 183.3 163.6 184.3C166 184.7 168.4 184.9 170.6 184.9C180.2 184.9 188.6 181.5 195.5 174.7C196.3 174 197.1 173.2 198 172.4C199 179.9 202.8 184.2 209.5 185.4C211.4 185.7 213.4 186.1 215.5 186.1C218.6 186.1 221.2 185.3 223.5 183.6L224.8 182.6L223.7 181.4C219.4 176.5 218.2 170.4 220 162.4C222.3 152.4 224.4 144.2 227.6 136.4C230.7 128.9 234.5 121.5 238.2 114.4C239.6 111.7 241 109 242.4 106.2C244.3 102.4 244 100.8 240.6 98.2C237.3 95.6 233.8 94.4 230.2 94.4ZM134.2 154.5C133.9 154.5 133.6 154.4 133.2 154.3C128.9 153.2 127 150.9 127 146.5C127 142.3 128.1 138.6 130.4 135.5C131.6 133.9 133.1 133 134.4 133C134.7 133 134.9 133 135.2 133.1C135.5 133.2 135.8 133.3 136 133.5L136.1 133.6L136.2 133.7L136.5 133.9C137.2 134.4 138.7 135.9 137.9 139.1L137.1 143.3C136.4 146.7 135.8 150 135.1 153.4C135 154.5 134.6 154.5 134.2 154.5ZM120.6 172.3C117.8 172.3 116.4 171.1 116 168.6C115.6 165.5 115.9 162.6 117 159.3C120.6 163.2 125.1 164.7 129.7 165.5C128 169.1 123.6 172.3 120.6 172.3Z" fill="white"/>
<path d="M297.1 220.9C296.4 220.4 295.6 219.9 294.9 219.5C293.8 218.9 290.7 217.7 290.3 217.5C287.2 216.4 284 215.5 280.6 215.3C276.1 215 273.1 216.8 271.8 220.9C270.8 224.3 270.7 227.8 270.9 231.3C270.9 231.9 271.1 232.2 271.4 232.4L272 232.6C276.4 234.7 281.3 238.3 281.7 240C282.8 244.2 281.8 248.7 281.8 253C281.8 253.4 281.3 254 281 254C280.1 254.2 279.1 254.2 278.2 254.2C250.4 254.2 222.6 254.2 194.9 254.2H165.5C165.4 253.8 165.3 253.7 165.3 253.6C165.3 248.6 165.3 243.6 165.3 238.6C165.3 238.3 165.7 238 166 237.8C166.6 237.4 169.2 235.5 169.9 235.1C171.7 234.2 173.5 233.4 175.3 232.5C175.7 232.3 176.3 231.7 176.3 231.4C176.4 227.9 176.5 224.5 175.5 221.1C174.6 217.9 172.6 215.8 169.2 215.4C169.1 215.4 169 215.4 168.9 215.4C168.9 215.4 168.9 215.4 168.8 215.4C168.8 215.4 168.7 215.4 168.6 215.4C163.9 215.5 154 218.3 154 218.3C149 219.5 147.2 223.9 147.3 226.5C147.5 230.9 147.6 235.4 147.9 239.8C148.3 245.2 148.9 250.6 149.5 256.1C150.2 262 159.3 261.9 161.5 261.9C192.4 261.9 223.3 261.9 254.2 261.9C266.4 261.9 278.5 261.8 290.7 261.7C294.7 261.7 297.1 259.5 297.5 255.6C298.2 248.8 298.8 242 299.3 235.1C299.5 232.2 299.5 229.3 299.7 226.4C299.8 224.2 299.1 222.3 297.1 220.9Z" fill="#FACC15"/>
<path d="M219.5 202.9C218.5 202.8 217.5 202.7 216.5 202.7C210.1 202.7 197.2 202.7 197.2 202.7C190.8 202.7 184.5 202.7 178.1 202.7C176.3 202.7 174.4 202.8 172.6 203.2C170.1 203.7 169 205.1 169 207.6C169 209.8 169 212.1 169 214.3C169 215.2 169.3 215.5 170.2 215.7C173.4 216.4 175.3 218.6 176.8 221.4C177.7 223.2 178.4 225.2 179.3 227C179.4 227.2 179.5 227.4 179.7 227.6C182 231.2 188.8 230.9 188.8 230.9C189.2 230.9 189.5 230.9 189.9 230.9C195.3 231 200.6 231.1 206 231.1H206.1C206.6 231.1 207.2 231.1 207.7 231C210.1 230.9 218.3 230.9 218.8 230.9C221.8 230.8 222.8 229.1 222.8 226.9C222.8 220.2 222.8 213.4 222.8 206.7C222.9 204.3 221.9 203.2 219.5 202.9Z" fill="#FACC15"/>
<path d="M281 242.8C281 241 280.3 239.4 279 238.2C276.9 236.1 274.4 234.5 271.5 233.9C268.1 233.1 264.5 232.5 261 232.4C251.1 232.3 229.1 232.4 226.4 233.5C225.2 234 224.1 234.7 224 236.2C224 241.1 224 246.1 224 251C224 252.6 224.8 253.4 226.5 253.5C227.9 253.6 277.7 253.6 279.6 253.1C280.6 253 280.7 250.9 280.7 250.9C280.7 250.8 280.7 250.6 280.7 250.4C281 247.9 281 245.4 281 242.8Z" fill="#FACC15"/>
</g>
<defs>
<clipPath id="clip0_35_153">
<rect width="409" height="320" fill="white"/>
</clipPath>
</defs>
</svg>
